<svg width="76" height="76" viewBox="0 0 76 76" fill="none" xmlns="http://www.w3.org/2000/svg">
<path d="M24.2245 34.2927C27.0162 34.2927 29.443 35.1044 30.5692 37.4146H34.5345V31.9512C35.5862 31.9512 36.5948 31.5401 37.3385 30.8082C38.0821 30.0764 38.4999 29.0838 38.4999 28.0488C38.4999 27.0138 38.0821 26.0212 37.3385 25.2893C36.5948 24.5575 35.5862 24.1463 34.5345 24.1463V17.122H28.1899C28.1899 14.9678 26.4134 14 24.2245 14C22.0357 14 20.2592 14.9678 20.2592 17.122H13.9146V21.8049C15.0796 22.3958 16.0569 23.2911 16.7391 24.3925C17.4214 25.4939 17.7823 26.7589 17.7823 28.0488C17.7823 29.3387 17.4214 30.6037 16.7391 31.7051C16.0569 32.8065 15.0796 33.7017 13.9146 34.2927V37.4146H17.8323C19.0061 35.1044 21.4329 34.2927 24.2245 34.2927Z" fill="white"/>
<path opacity="0.6" d="M47.81 34.2927C50.6016 34.2927 53.0284 35.1044 54.1546 37.4146H58.12V31.9512C59.1717 31.9512 60.1803 31.5401 60.9239 30.8082C61.6676 30.0764 62.0854 29.0838 62.0854 28.0488C62.0854 27.0138 61.6676 26.0212 60.9239 25.2893C60.1803 24.5575 59.1717 24.1463 58.12 24.1463V17.122H51.7754C51.7754 14.9678 49.9989 14 47.81 14C45.6211 14 43.8446 14.9678 43.8446 17.122H37.5V21.8049C38.6651 22.3958 39.6423 23.2911 40.3246 24.3925C41.0068 25.4939 41.3677 26.7589 41.3677 28.0488C41.3677 29.3387 41.0068 30.6037 40.3246 31.7051C39.6423 32.8065 38.6651 33.7017 37.5 34.2927V37.4146H41.4178C42.5916 35.1044 45.0184 34.2927 47.81 34.2927Z" fill="white"/>
<path opacity="0.6" d="M34.5345 48.0683V40.6927H28.1899C28.1899 38.4308 26.4134 37.4146 24.2245 37.4146C22.0357 37.4146 20.2592 38.4308 20.2592 40.6927H13.9146V45.6098C15.0796 46.2302 16.0569 47.1703 16.7391 48.3267C17.4214 49.4832 17.7823 50.8114 17.7823 52.1659C17.7823 53.5203 17.4214 54.8485 16.7391 56.005C16.0569 57.1615 15.0796 58.1015 13.9146 58.722V62H20.2592C20.2592 59.7382 22.0357 58.722 24.2245 58.722C26.4134 58.722 28.1899 59.7382 28.1899 62H34.5345V56.2634C35.5862 56.2634 36.5948 55.8317 37.3385 55.0633C38.0821 54.2948 38.4999 53.2526 38.4999 52.1659C38.4999 51.0791 38.0821 50.0369 37.3385 49.2684C36.5948 48.5 35.5862 48.0683 34.5345 48.0683Z" fill="white"/>
<path opacity="0.6" d="M58.12 48.0683V40.6927H51.7754C51.7754 38.4308 49.9989 37.4146 47.81 37.4146C45.6211 37.4146 43.8446 38.4308 43.8446 40.6927H37.5V45.6098C38.6651 46.2302 39.6423 47.1703 40.3246 48.3267C41.0068 49.4832 41.3677 50.8114 41.3677 52.1659C41.3677 53.5203 41.0068 54.8485 40.3246 56.005C39.6423 57.1615 38.6651 58.1015 37.5 58.722V62H43.8446C43.8446 59.7382 45.6211 58.722 47.81 58.722C49.9989 58.722 51.7754 59.7382 51.7754 62H58.12V56.2634C59.1717 56.2634 60.1803 55.8317 60.9239 55.0633C61.6676 54.2948 62.0854 53.2526 62.0854 52.1659C62.0854 51.0791 61.6676 50.0369 60.9239 49.2684C60.1803 48.5 59.1717 48.0683 58.12 48.0683Z" fill="white"/>
</svg>
